<svg width="44" height="44" viewBox="0 0 44 44" fill="none" xmlns="http://www.w3.org/2000/svg">
<g id="1food 1" clip-path="url(#clip0_1_403)">
<g id="Group">
<path id="Vector" d="M33.7578 39.9165C34.2216 39.9165 34.5977 39.5405 34.5977 39.0767C34.5977 38.6128 34.2216 38.2368 33.7578 38.2368C33.294 38.2368 32.918 38.6128 32.918 39.0767C32.918 39.5405 33.294 39.9165 33.7578 39.9165Z" fill="#1FB6CF"/>
<path id="Vector_2" d="M10.2422 39.9165C10.706 39.9165 11.082 39.5405 11.082 39.0767C11.082 38.6128 10.706 38.2368 10.2422 38.2368C9.77835 38.2368 9.40234 38.6128 9.40234 39.0767C9.40234 39.5405 9.77835 39.9165 10.2422 39.9165Z" fill="#1FB6CF"/>
<path id="Vector_3" d="M22 43.2759C22.4638 43.2759 22.8398 42.8999 22.8398 42.436C22.8398 41.9722 22.4638 41.5962 22 41.5962C21.5362 41.5962 21.1602 41.9722 21.1602 42.436C21.1602 42.8999 21.5362 43.2759 22 43.2759Z" fill="#1FB6CF"/>
<path id="Vector_4" d="M0.501031 38.991C0.452908 41.392 2.46072 43.2759 4.76903 43.2759H18.2207C18.6846 43.2759 19.0606 42.8999 19.0606 42.436C19.0606 41.9722 18.6846 41.5962 18.2207 41.5962H13.5993C14.1277 40.8938 14.4414 40.0212 14.4414 39.0767C14.4414 38.1321 14.1277 37.2586 13.5993 36.5563H30.4007C29.8724 37.2586 29.5586 38.1321 29.5586 39.0767C29.5586 40.0212 29.8723 40.8938 30.4007 41.5962H25.7793C25.3156 41.5962 24.9395 41.9722 24.9395 42.436C24.9395 42.8999 25.3156 43.2759 25.7793 43.2759H39.2345C41.5633 43.2759 43.5446 41.3725 43.499 38.9954C43.4676 37.3302 42.4458 35.8937 41.0073 35.2455C41.2042 34.8867 41.3164 34.475 41.3164 34.0376V27.0812C41.3164 25.8151 40.8925 24.5573 40.1227 23.5395C39.782 23.0891 39.6367 22.6478 39.6367 22.064V16.7368C39.6367 16.273 39.2607 15.897 38.7969 15.897H35.4375C34.9738 15.897 34.5977 16.273 34.5977 16.7368V22.0639C34.5977 22.6298 34.4494 23.0818 34.1175 23.5292C33.3328 24.5857 32.918 25.8133 32.918 27.0795V34.0376C32.918 34.332 32.9692 34.6146 33.0624 34.8774H31.0938C31.1871 34.6146 31.2383 34.332 31.2383 34.0376V27.0812C31.2383 25.8151 30.8144 24.5573 30.0445 23.5395C29.7039 23.0891 29.5586 22.6478 29.5586 22.064V16.7368C29.5586 16.273 29.1825 15.897 28.7188 15.897H25.3594C24.8956 15.897 24.5196 16.273 24.5196 16.7368V22.0639C24.5196 22.6298 24.3713 23.0818 24.0393 23.5292C23.2547 24.5857 22.8399 25.8133 22.8399 27.0795V34.0376C22.8399 34.332 22.8911 34.6146 22.9843 34.8774H21.0157C21.1089 34.6146 21.1602 34.332 21.1602 34.0376V27.0812C21.1602 25.8556 20.7724 24.6048 19.9664 23.5394C19.6258 23.089 19.4805 22.6477 19.4805 22.0639V16.7368C19.4805 16.273 19.1045 15.897 18.6406 15.897H17.8008V13.7109C18.8862 12.5032 19.4805 10.9587 19.4805 9.32268V8.03276L22.7512 1.4913C22.8814 1.23095 22.8674 0.921803 22.7144 0.674217C22.5615 0.426547 22.2911 0.275879 22 0.275879H11.9219C11.6308 0.275879 11.3605 0.426547 11.2075 0.674217C11.0545 0.921803 11.0406 1.23095 11.1707 1.4913L14.4414 8.03276V9.32268C14.4414 10.9587 15.0357 12.5032 16.1211 13.7109V15.897H15.2813C14.8174 15.897 14.4414 16.273 14.4414 16.7368V22.0639C14.4414 22.6298 14.2933 23.0818 13.9613 23.5291C13.2619 24.4705 12.7617 25.7209 12.7617 27.0795V34.0376C12.7617 34.332 12.813 34.6146 12.9062 34.8774H10.9376C11.0308 34.6146 11.0821 34.332 11.0821 34.0376V27.0812C11.0821 25.8152 10.6581 24.5574 9.8883 23.5394C9.54766 23.089 9.40237 22.6477 9.40237 22.0639V16.7368C9.40237 16.273 9.02637 15.897 8.56252 15.897H5.20315C4.7393 15.897 4.3633 16.273 4.3633 16.7368V22.0639C4.3633 22.6298 4.21516 23.0818 3.88317 23.5291C3.09842 24.5855 2.68362 25.8132 2.68362 27.0795V34.0376C2.68362 34.4729 2.79464 34.8826 2.98974 35.2403C1.54504 35.8847 0.534205 37.3159 0.501031 38.991ZM41.8197 39.0273C41.847 40.4538 40.6333 41.5962 39.2345 41.5962H37.1149C37.6434 40.8938 37.9571 40.0212 37.9571 39.0767C37.9571 38.1321 37.6434 37.2595 37.1149 36.5571H39.3008C40.664 36.5571 41.794 37.6651 41.8197 39.0273ZM36.2774 17.5767H37.9571V19.2563H36.2774V17.5767ZM34.5977 27.0795C34.5977 26.1767 34.8978 25.2954 35.4661 24.5306C36.012 23.7949 36.2774 22.9881 36.2774 22.0639V20.936H37.9571V22.0639C37.9571 23.0167 38.2195 23.8074 38.783 24.5526C39.3336 25.2805 39.6367 26.1786 39.6367 27.0812V34.0376C39.6367 34.5007 39.26 34.8774 38.7969 34.8774C37.6568 34.8774 36.4216 34.8774 35.4375 34.8774C34.9744 34.8774 34.5977 34.5007 34.5977 34.0376V27.0795ZM33.7578 36.5571C35.1471 36.5571 36.2774 37.6874 36.2774 39.0767C36.2774 40.4659 35.1471 41.5962 33.7578 41.5962C32.3686 41.5962 31.2383 40.4659 31.2383 39.0767C31.2383 37.6874 32.3686 36.5571 33.7578 36.5571ZM26.1992 17.5767H27.8789V19.2563H26.1992V17.5767ZM24.5196 27.0795C24.5196 26.1767 24.8197 25.2954 25.388 24.5306C25.9338 23.7949 26.1992 22.9881 26.1992 22.0639V20.936H27.8789V22.0639C27.8789 23.0167 28.1414 23.8074 28.7048 24.5526C29.2554 25.2805 29.5586 26.1786 29.5586 27.0812V34.0376C29.5586 34.5007 29.1819 34.8774 28.7188 34.8774H25.3594C24.8963 34.8774 24.5196 34.5007 24.5196 34.0376V27.0795ZM14.1207 3.63525L13.2808 1.95557H20.6412L19.8014 3.63525H14.1207ZM16.0325 7.45889L14.9605 5.31494H18.9615L17.8895 7.45889C17.8312 7.57555 17.8008 7.70413 17.8008 7.83447V9.32268C17.8008 10.3154 17.5071 11.2631 16.961 12.0665C16.4148 11.2631 16.1211 10.3154 16.1211 9.32268V7.83447C16.1211 7.70413 16.0908 7.57555 16.0325 7.45889ZM15.3099 24.5305C15.8558 23.7949 16.1212 22.988 16.1212 22.0639V17.5767H17.8009V22.0639C17.8009 23.0167 18.0633 23.8075 18.6269 24.5527C18.9529 24.9837 19.1897 25.4651 19.3302 25.9751H14.5951C14.7381 25.4652 14.9788 24.9762 15.3099 24.5305ZM14.4414 27.6548H19.4805V34.0376C19.4805 34.5007 19.1037 34.8774 18.6406 34.8774H15.2813C14.8182 34.8774 14.4414 34.5007 14.4414 34.0376V27.6548ZM10.2422 36.5571C11.6315 36.5571 12.7617 37.6851 12.7617 39.0767C12.7617 40.4659 11.6315 41.5962 10.2422 41.5962C8.85294 41.5962 7.72268 40.4659 7.72268 39.0767C7.72268 37.6874 8.85294 36.5571 10.2422 36.5571ZM4.3633 27.0795C4.3633 26.1767 4.66355 25.2954 5.2317 24.5305C5.7776 23.7949 6.04299 22.988 6.04299 22.0639V17.5767H7.72268V22.0639C7.72268 23.0167 7.98513 23.8075 8.54858 24.5525C9.09918 25.2806 9.40237 26.1786 9.40237 27.0812V34.0376C9.40237 34.5007 9.02561 34.8774 8.56252 34.8774H5.20315C4.74006 34.8774 4.3633 34.5007 4.3633 34.0376V27.0795ZM4.69924 36.5571L6.8851 36.5563C6.35676 37.2586 6.04299 38.1321 6.04299 39.0767C6.04299 40.0212 6.35667 40.8938 6.8851 41.5962H4.76903C3.35843 41.5962 2.152 40.4436 2.18047 39.0244C2.20734 37.664 3.33735 36.5571 4.69924 36.5571Z" fill="#1FB6CF"/>
</g>
</g>
<defs>
<clipPath id="clip0_1_403">
<rect width="43" height="43" fill="white" transform="translate(0.5 0.275879)"/>
</clipPath>
</defs>
</svg>
