<svg width="44" height="44" viewBox="0 0 44 44" fill="none" xmlns="http://www.w3.org/2000/svg">
<g id="2pharmacy" clip-path="url(#clip0_1_413)">
<g id="Group">
<g id="Group_2">
<path id="Vector" d="M43.1757 5.04407C42.9709 4.88492 42.7043 4.82924 42.4531 4.89315L38.4575 5.90911C37.8159 6.07212 37.155 6.15485 36.4932 6.15485H30.6295C28.7274 6.15485 27.1385 7.51967 26.8516 9.40024C26.6909 10.4542 25.8002 11.2192 24.7341 11.2192H24.5195V9.46483C25.968 8.60248 26.941 7.02148 26.941 5.21683C26.941 2.49239 24.7245 0.275879 22 0.275879C19.2755 0.275879 17.0591 2.49239 17.0591 5.21683C17.0591 7.02148 18.032 8.60248 19.4805 9.46483V11.2192H19.2659C18.1998 11.2192 17.3092 10.4542 17.1484 9.40024C16.8615 7.51967 15.2726 6.15485 13.3705 6.15485H7.5068C6.845 6.15485 6.18413 6.07221 5.54258 5.90911L1.54687 4.89324C1.29592 4.82941 1.02911 4.88501 0.824354 5.04416C0.619769 5.20322 0.500092 5.44795 0.500092 5.70713C0.500092 7.47995 1.18406 9.09555 2.30088 10.3059C2.3254 12.3441 3.29113 14.1589 4.78294 15.3368L5.57298 16.3927C7.37435 18.8003 10.2452 20.2378 13.2523 20.2378C15.559 20.2378 17.745 19.4269 19.4805 17.941V20.9361H18.7272C15.7326 20.9361 13.2962 23.3725 13.2962 26.3671C13.2962 27.2822 13.5285 28.1872 13.9676 28.9844C14.1206 29.2622 14.4078 29.4192 14.704 29.4192C14.841 29.4192 14.98 29.3856 15.1084 29.3148C15.5148 29.091 15.6627 28.5802 15.4388 28.174C15.1361 27.6243 14.9759 26.9995 14.9759 26.3671C14.9759 24.2986 16.6587 22.6158 18.7272 22.6158H19.4805V30.1183H17.5069C15.2918 30.1183 13.4897 31.9205 13.4897 34.1356C13.4897 36.3507 15.2918 38.1529 17.5069 38.1529H19.842C20.1331 39.7299 20.5988 41.2724 21.2387 42.7667C21.371 43.0757 21.6747 43.2759 22.0107 43.2759H22.0122C22.3488 43.2753 22.6526 43.0738 22.7839 42.7638L22.8005 42.7248C23.4268 41.2433 23.8825 39.7148 24.1671 38.1529H25.1214C26.0708 38.1529 26.8431 38.9252 26.8431 39.8745C26.8431 40.8239 26.0708 41.5962 25.1214 41.5962H25.0644C24.6007 41.5962 24.2246 41.9723 24.2246 42.436C24.2246 42.8998 24.6007 43.2759 25.0644 43.2759H25.1214C26.997 43.2759 28.5228 41.7501 28.5228 39.8745C28.5228 37.999 26.997 36.4732 25.1214 36.4732H24.406C24.4812 35.7362 24.5195 34.993 24.5195 34.2448V31.798H25.0795C28.0741 31.798 30.5104 29.3617 30.5104 26.3671C30.5104 23.3725 28.0741 20.9361 25.0795 20.9361H24.5195V17.941C26.2551 19.427 28.441 20.2378 30.7477 20.2378C33.7547 20.2378 36.6254 18.8004 38.427 16.3927L39.2171 15.3368C40.709 14.1589 41.6746 12.3441 41.6991 10.3058C42.816 9.09555 43.4999 7.47995 43.4999 5.70713C43.4999 5.44795 43.3802 5.20322 43.1757 5.04407ZM18.8156 16.2715C17.3248 17.7461 15.3491 18.5581 13.2523 18.5581C11.3843 18.5581 9.58019 17.8854 8.16851 16.705C8.37931 16.7257 8.59288 16.7368 8.80905 16.7368H10.2155C10.6792 16.7368 11.0553 16.3608 11.0553 15.897C11.0553 15.4332 10.6792 15.0572 10.2155 15.0572H8.80905C6.6835 15.0572 4.87541 13.6763 4.23133 11.765C5.15054 12.2308 6.18842 12.4951 7.28743 12.4953L9.02447 12.4956C9.48815 12.4956 9.86431 12.1196 9.8644 11.6558C9.86448 11.192 9.48848 10.816 9.02464 10.8159L7.2876 10.8156C4.85265 10.8153 2.81016 9.10227 2.30155 6.81815L5.12887 7.53697C5.90556 7.7345 6.70559 7.83453 7.5068 7.83453H13.3705C14.4367 7.83453 15.3272 8.59945 15.488 9.65345C15.7749 11.534 17.3638 12.8988 19.2659 12.8988H19.4805V15.6139L18.8156 16.2715ZM17.5069 36.4731C16.218 36.4731 15.1693 35.4245 15.1693 34.1356C15.1693 32.8466 16.218 31.7979 17.5069 31.7979H19.4805V34.1948C19.4805 34.96 19.5207 35.7198 19.5993 36.4731H17.5069ZM22.8398 34.2447C22.8398 36.2002 22.5604 38.1193 22.0075 39.9735C21.4445 38.104 21.1602 36.1685 21.1602 34.1948V31.7979H22.8398V34.2447ZM22.8398 30.1183H21.1602V10.085C21.4333 10.132 21.7136 10.1579 22 10.1579C22.2864 10.1579 22.5667 10.132 22.8398 10.085V30.1183ZM25.0795 22.6157C27.1479 22.6157 28.8307 24.2985 28.8307 26.367C28.8307 28.4355 27.1479 30.1183 25.0795 30.1183H24.5195V22.6157H25.0795ZM22 8.4781C20.2017 8.4781 18.7387 7.01509 18.7387 5.21683C18.7387 3.41856 20.2017 1.95556 22 1.95556C23.7983 1.95556 25.2613 3.41856 25.2613 5.21683C25.2613 7.01509 23.7984 8.4781 22 8.4781ZM36.7124 10.8156L34.9755 10.8159C34.5117 10.816 34.1357 11.192 34.1358 11.6558C34.1359 12.1196 34.512 12.4956 34.9757 12.4956L36.7128 12.4953C37.8118 12.4951 38.8496 12.2308 39.7688 11.765C39.1248 13.6763 37.3166 15.0572 35.1911 15.0572H33.7846C33.3209 15.0572 32.9448 15.4332 32.9448 15.897C32.9448 16.3608 33.3209 16.7368 33.7846 16.7368H35.191C35.4072 16.7368 35.6207 16.7257 35.8315 16.705C34.4197 17.8854 32.6158 18.5581 30.7478 18.5581C28.651 18.5581 26.6753 17.7461 25.1845 16.2716L24.5195 15.6139V12.8988H24.7341C26.6363 12.8988 28.2252 11.534 28.512 9.65345C28.6728 8.59945 29.5634 7.83453 30.6295 7.83453H36.4932C37.2944 7.83453 38.0945 7.7345 38.8712 7.53697L41.6985 6.81815C41.1899 9.10218 39.1474 10.8153 36.7124 10.8156Z" fill="#1FB6CF"/>
</g>
</g>
<g id="Group_3">
<g id="Group_4">
<path id="Vector_2" d="M19.2343 41.8422C19.0782 41.6859 18.8615 41.5961 18.6406 41.5961C18.4198 41.5961 18.2031 41.6859 18.0469 41.8422C17.8907 41.9985 17.8008 42.2151 17.8008 42.436C17.8008 42.6568 17.8906 42.8735 18.0469 43.0297C18.2031 43.1859 18.4198 43.2758 18.6406 43.2758C18.8615 43.2758 19.0782 43.1859 19.2343 43.0297C19.3905 42.8735 19.4805 42.6568 19.4805 42.436C19.4805 42.2151 19.3906 41.9984 19.2343 41.8422Z" fill="#1FB6CF"/>
</g>
</g>
</g>
<defs>
<clipPath id="clip0_1_413">
<rect width="43" height="43" fill="white" transform="translate(0.5 0.275879)"/>
</clipPath>
</defs>
</svg>
