<svg width="44" height="44" viewBox="0 0 44 44" fill="none" xmlns="http://www.w3.org/2000/svg">
<g id="3energetic" clip-path="url(#clip0_1_424)">
<g id="Group">
<g id="Group_2">
<path id="Vector" d="M36.5309 17.6272L21.9761 17.5809L27.4921 1.77456C27.6311 1.35738 27.5384 0.847503 27.1676 0.523033C26.7041 0.15221 26.0088 0.198563 25.6379 0.662091C23.5057 3.25785 21.3735 5.85361 19.2876 8.44936C15.0231 13.6872 10.7587 18.9251 6.49423 24.163C6.35517 24.3484 6.26247 24.5801 6.26247 24.8583C6.26247 25.4608 6.72599 25.9244 7.32858 25.9244L21.8834 25.9707L16.3674 41.777C16.2283 42.1942 16.321 42.7041 16.6919 43.0286C17.1554 43.3994 17.8507 43.353 18.2215 42.8895C20.4464 40.1547 22.5787 37.6053 24.7109 35.0559C29.0217 29.8644 33.3325 24.6729 37.4116 19.3886C37.5506 19.2032 37.6433 18.9715 37.6433 18.7397C37.6432 18.1371 37.1334 17.6272 36.5309 17.6272ZM23.0422 33.6189C22.2078 34.6387 21.3271 35.6585 20.4928 36.6782L24.4791 25.2754C24.6645 24.7192 24.3864 24.0703 23.7838 23.8849C23.6448 23.8385 23.5057 23.8385 23.3667 23.8385L9.64622 23.7921C13.4472 19.1569 17.2017 14.5216 21.0027 9.8863L23.413 6.91972L19.4267 18.2762C19.2413 18.8324 19.5194 19.4813 20.122 19.6667C20.261 19.7131 20.4001 19.7131 20.5391 19.7131L34.3523 19.7595C30.6904 24.4411 26.8895 29.03 23.0422 33.6189Z" fill="#1FB6CF"/>
</g>
</g>
<g id="Group_3">
<g id="Group_4">
<path id="Vector_2" d="M18.8241 3.16518C18.685 2.56259 18.0824 2.19177 17.5262 2.33083C12.9836 3.35059 9.22905 5.85364 6.54058 9.2374C3.85212 12.6212 2.27612 16.8856 2.27612 21.4745C2.27612 25.0901 3.24953 28.5665 5.05729 31.5795C6.86505 34.5924 9.41446 37.0954 12.6128 38.8105C13.169 39.0886 13.818 38.9032 14.0961 38.347C14.3742 37.7907 14.1888 37.1418 13.6326 36.8637C10.805 35.334 8.53375 33.1091 6.9114 30.4206C5.33541 27.7785 4.45471 24.6729 4.45471 21.4745C4.45471 17.3955 5.84529 13.6409 8.25564 10.628C10.6196 7.61505 14.0034 5.39011 17.9897 4.46306C18.5923 4.324 18.963 3.72141 18.8241 3.16518Z" fill="#1FB6CF"/>
</g>
</g>
<g id="Group_5">
<g id="Group_6">
<path id="Vector_3" d="M39.0338 11.4623C37.2724 8.49576 34.723 5.94635 31.571 4.2313C31.0611 3.95318 30.3658 4.13859 30.0877 4.64847C29.8096 5.15835 29.995 5.85365 30.5049 6.13176C33.286 7.66141 35.5573 9.88634 37.1333 12.5285C38.7093 15.1706 39.5437 18.2298 39.5437 21.4282C39.5437 25.5536 38.1067 29.3545 35.6964 32.3675C33.286 35.3804 29.8559 37.6053 25.8232 38.486C25.2207 38.6251 24.8498 39.1813 24.9889 39.7839C25.128 40.3865 25.6842 40.7573 26.2868 40.6183C30.783 39.5985 34.6303 37.1418 37.3651 33.7117C40.0999 30.3279 41.7223 26.0171 41.7223 21.3818C41.7687 17.859 40.7953 14.4289 39.0338 11.4623Z" fill="#1FB6CF"/>
</g>
</g>
</g>
<defs>
<clipPath id="clip0_1_424">
<rect width="43" height="43" fill="white" transform="translate(0.5 0.275879)"/>
</clipPath>
</defs>
</svg>
