<svg width="44" height="44" viewBox="0 0 44 44" fill="none" xmlns="http://www.w3.org/2000/svg">
<g id="4chemistry" clip-path="url(#clip0_1_438)">
<path id="Vector" d="M28.2419 29.9894V25.2436H29.629V23.8565H21.3065V25.2436H22.6936V29.9894C22.2218 30.1957 21.7927 30.4646 21.3871 30.7622L17.1452 22.9862V19.6953H18.5323V18.3082H17.1452V16.2275C17.1452 15.8448 16.8353 15.534 16.4516 15.534H15.7581V13.4533C15.7581 13.0706 15.4482 12.7598 15.0645 12.7598H10.9032C10.5195 12.7598 10.2097 13.0706 10.2097 13.4533V15.534H9.51613C9.13244 15.534 8.82258 15.8448 8.82258 16.2275V18.3082H7.43548V19.6953H8.82258V22.9862L0.92297 37.4681C0.646295 37.9757 0.5 38.5501 0.5 39.1285V39.8082C0.5 41.7202 2.05574 43.2759 3.96774 43.2759H22C22.4917 43.2759 22.9743 43.1662 23.4189 42.9667C24.0668 43.1669 24.7549 43.2759 25.4677 43.2759C29.2921 43.2759 32.4032 40.1647 32.4032 36.3404C32.4032 33.5781 30.75 31.0853 28.2419 29.9894ZM26.8548 25.2436V26.6307H24.0806V25.2436H26.8548ZM23.6187 31.1151C23.8954 31.0169 24.0806 30.7551 24.0806 30.4612V28.0178H26.8548V30.4612C26.8548 30.7551 27.0401 31.0169 27.3168 31.1151C29.0811 31.7402 30.369 33.2062 30.8248 34.9601C30.2968 34.9784 29.8017 35.187 29.4258 35.5629L28.8515 36.1372C28.7218 36.2662 28.5437 36.3404 28.3611 36.3404H28.1227C27.9402 36.3404 27.7614 36.2662 27.6324 36.1372L27.058 35.5629C26.6655 35.1697 26.1427 34.9533 25.5869 34.9533H25.3485C24.7928 34.9533 24.27 35.1697 23.8775 35.5629L23.3031 36.1372C23.1734 36.2662 22.9953 36.3404 22.8128 36.3404H22.5743C22.3918 36.3404 22.213 36.2662 22.084 36.1372L21.5096 35.5629C21.1344 35.187 20.6393 34.9791 20.1107 34.9601C20.5665 33.2062 21.8544 31.7396 23.6187 31.1151ZM11.5968 14.1469H14.371V15.534H11.5968V14.1469ZM10.2097 16.9211H15.7581V18.3082H10.2097V16.9211ZM10.125 23.4952C10.1806 23.3933 10.2097 23.2788 10.2097 23.163V19.6953H15.7581V23.163C15.7581 23.2788 15.7872 23.3933 15.8427 23.4952L18.3152 28.0277C17.7971 28.0517 17.3118 28.2579 16.942 28.6274L16.3676 29.2017C16.2379 29.3308 16.0598 29.4049 15.8773 29.4049H15.6389C15.4563 29.4049 15.2775 29.3308 15.1485 29.2017L14.5742 28.6274C14.1817 28.2342 13.6588 28.0178 13.1031 28.0178H12.8647C12.3089 28.0178 11.7861 28.2342 11.3936 28.6274L10.8192 29.2017C10.6895 29.3308 10.5114 29.4049 10.3289 29.4049H10.0905C9.90794 29.4049 9.72914 29.3308 9.60011 29.2017L9.02577 28.6274C8.65698 28.2579 8.17069 28.0517 7.65256 28.0277L10.125 23.4952ZM3.96774 41.8888C2.82075 41.8888 1.8871 40.9552 1.8871 39.8082V39.1285C1.8871 38.7817 1.97514 38.4363 2.14108 38.1319L6.90144 29.4049H7.55469C7.73722 29.4049 7.91602 29.4791 8.04505 29.6081L8.61939 30.1825C9.01188 30.5756 9.53476 30.792 10.0905 30.792H10.3289C10.8846 30.792 11.4075 30.5756 11.8 30.1825L12.3743 29.6081C12.504 29.4791 12.6821 29.4049 12.8647 29.4049H13.1031C13.2856 29.4049 13.4644 29.4791 13.5934 29.6081L14.1678 30.1825C14.5603 30.5756 15.0831 30.792 15.6389 30.792H15.8773C16.433 30.792 16.9559 30.5756 17.3484 30.1825L17.9227 29.6081C18.0524 29.4791 18.2305 29.4049 18.4131 29.4049H19.0663L20.3217 31.706C19.1987 32.9533 18.5323 34.5913 18.5323 36.3404C18.5323 38.6104 19.6335 40.6229 21.3244 41.8888H3.96774ZM25.4677 41.8888C22.4084 41.8888 19.9194 39.3997 19.9194 36.3404H20.0386C20.2211 36.3404 20.3999 36.4146 20.5289 36.5436L21.1033 37.1179C21.4958 37.5111 22.0186 37.7275 22.5743 37.7275H22.8128C23.3685 37.7275 23.8913 37.5111 24.2838 37.1179L24.8582 36.5436C24.9879 36.4146 25.166 36.3404 25.3485 36.3404H25.5869C25.7695 36.3404 25.9483 36.4146 26.0773 36.5436L26.6517 37.1179C27.0441 37.5111 27.567 37.7275 28.1227 37.7275H28.3611C28.9169 37.7275 29.4397 37.5111 29.8322 37.1179L30.4066 36.5436C30.5363 36.4146 30.7144 36.3404 30.8969 36.3404H31.0161C31.0161 39.3997 28.5271 41.8888 25.4677 41.8888Z" fill="#1FB6CF"/>
<path id="Vector_2" d="M5.35485 36.3404C4.20785 36.3404 3.2742 37.274 3.2742 38.421C3.2742 39.568 4.20785 40.5017 5.35485 40.5017C6.50184 40.5017 7.43549 39.568 7.43549 38.421C7.43549 37.274 6.50184 36.3404 5.35485 36.3404ZM5.35485 39.1146C4.97218 39.1146 4.6613 38.803 4.6613 38.421C4.6613 38.039 4.97218 37.7275 5.35485 37.7275C5.73752 37.7275 6.04839 38.039 6.04839 38.421C6.04839 38.803 5.73752 39.1146 5.35485 39.1146Z" fill="#1FB6CF"/>
<path id="Vector_3" d="M10.9032 34.9533C9.75622 34.9533 8.82257 35.887 8.82257 37.034C8.82257 38.1809 9.75622 39.1146 10.9032 39.1146C12.0502 39.1146 12.9839 38.1809 12.9839 37.034C12.9839 35.887 12.0502 34.9533 10.9032 34.9533ZM10.9032 37.7275C10.5205 37.7275 10.2097 37.4159 10.2097 37.034C10.2097 36.652 10.5205 36.3404 10.9032 36.3404C11.2859 36.3404 11.5968 36.652 11.5968 37.034C11.5968 37.4159 11.2859 37.7275 10.9032 37.7275Z" fill="#1FB6CF"/>
<path id="Vector_4" d="M15.7581 32.1791C14.6111 32.1791 13.6774 33.1127 13.6774 34.2597C13.6774 35.4067 14.6111 36.3404 15.7581 36.3404C16.9051 36.3404 17.8387 35.4067 17.8387 34.2597C17.8387 33.1127 16.9051 32.1791 15.7581 32.1791ZM15.7581 34.9533C15.3754 34.9533 15.0645 34.6417 15.0645 34.2597C15.0645 33.8777 15.3754 33.5662 15.7581 33.5662C16.1407 33.5662 16.4516 33.8777 16.4516 34.2597C16.4516 34.6417 16.1407 34.9533 15.7581 34.9533Z" fill="#1FB6CF"/>
<path id="Vector_5" d="M16.4516 39.1146H17.8387V40.5017H16.4516V39.1146Z" fill="#1FB6CF"/>
<path id="Vector_6" d="M15.0645 37.7275H16.4516V39.1146H15.0645V37.7275Z" fill="#1FB6CF"/>
<path id="Vector_7" d="M13.6774 39.1146H15.0645V40.5017H13.6774V39.1146Z" fill="#1FB6CF"/>
<path id="Vector_8" d="M8.12903 32.8727H9.51613V34.2598H8.12903V32.8727Z" fill="#1FB6CF"/>
<path id="Vector_9" d="M42.8064 9.98553H33.0967C32.7131 9.98553 32.4032 10.2964 32.4032 10.6791V13.4533C32.4032 13.8359 32.7131 14.1468 33.0967 14.1468H33.7903V39.1146C33.7903 41.4096 35.6566 43.2759 37.9516 43.2759C40.2466 43.2759 42.1129 41.4096 42.1129 39.1146V14.1468H42.8064C43.1901 14.1468 43.5 13.8359 43.5 13.4533V10.6791C43.5 10.2964 43.1901 9.98553 42.8064 9.98553ZM37.9516 41.8888C36.4216 41.8888 35.1774 40.6446 35.1774 39.1146V23.8565H40.7258V39.1146C40.7258 40.6446 39.4816 41.8888 37.9516 41.8888ZM40.7258 22.4694H35.1774V14.1468H40.7258V22.4694ZM42.1129 12.7597H33.7903V11.3726H42.1129V12.7597Z" fill="#1FB6CF"/>
<path id="Vector_10" d="M36.5645 38.421H37.9516V39.8081H36.5645V38.421Z" fill="#1FB6CF"/>
<path id="Vector_11" d="M37.9516 35.6469H39.3387V37.0339H37.9516V35.6469Z" fill="#1FB6CF"/>
<path id="Vector_12" d="M36.5645 32.8727H37.9516V34.2598H36.5645V32.8727Z" fill="#1FB6CF"/>
<path id="Vector_13" d="M37.9516 30.0984H39.3387V31.4855H37.9516V30.0984Z" fill="#1FB6CF"/>
<path id="Vector_14" d="M36.5645 27.3243H37.9516V28.7114H36.5645V27.3243Z" fill="#1FB6CF"/>
<path id="Vector_15" d="M11.5968 7.90491C11.5968 7.52292 11.9077 7.21136 12.2903 7.21136H14.371V11.3727H15.7581V7.21136H22.6936V22.4694H24.0807V7.21136H26.1613C26.544 7.21136 26.8548 7.52292 26.8548 7.90491V22.4694H28.2419V7.90491C28.2419 6.75792 27.3083 5.82427 26.1613 5.82427H24.0807V5.13072C24.0807 4.74872 24.3915 4.43717 24.7742 4.43717H33.0968C33.4795 4.43717 33.7903 4.74872 33.7903 5.13072V8.59846H35.1774V5.13072C35.1774 3.98372 34.2438 3.05007 33.0968 3.05007H24.7742C23.6272 3.05007 22.6936 3.98372 22.6936 5.13072V5.82427H15.7581V2.35652C15.7581 1.97453 16.069 1.66298 16.4516 1.66298H40.0323C40.4149 1.66298 40.7258 1.97453 40.7258 2.35652V8.59846H42.1129V2.35652C42.1129 1.20953 41.1793 0.275879 40.0323 0.275879H16.4516C15.3046 0.275879 14.371 1.20953 14.371 2.35652V5.82427H12.2903C11.1433 5.82427 10.2097 6.75792 10.2097 7.90491V11.3727H11.5968V7.90491Z" fill="#1FB6CF"/>
<path id="Vector_16" d="M4.66129 10.6791C4.66129 11.8261 5.59493 12.7597 6.74193 12.7597C7.88893 12.7597 8.82258 11.8261 8.82258 10.6791C8.82258 9.5321 7.88893 8.59845 6.74193 8.59845C5.59493 8.59845 4.66129 9.5321 4.66129 10.6791ZM7.43548 10.6791C7.43548 11.0611 7.1246 11.3726 6.74193 11.3726C6.35926 11.3726 6.04838 11.0611 6.04838 10.6791C6.04838 10.2971 6.35926 9.98555 6.74193 9.98555C7.1246 9.98555 7.43548 10.2971 7.43548 10.6791Z" fill="#1FB6CF"/>
<path id="Vector_17" d="M3.96774 7.21136C5.87974 7.21136 7.43548 5.65562 7.43548 3.74362C7.43548 1.83162 5.87974 0.275879 3.96774 0.275879C2.05574 0.275879 0.5 1.83162 0.5 3.74362C0.5 5.65562 2.05574 7.21136 3.96774 7.21136ZM3.96774 1.66298C5.11474 1.66298 6.04839 2.59662 6.04839 3.74362C6.04839 4.89062 5.11474 5.82427 3.96774 5.82427C2.82075 5.82427 1.8871 4.89062 1.8871 3.74362C1.8871 2.59662 2.82075 1.66298 3.96774 1.66298Z" fill="#1FB6CF"/>
<path id="Vector_18" d="M3.27419 19.6952C4.8042 19.6952 6.04839 18.4511 6.04839 16.921C6.04839 15.391 4.8042 14.1469 3.27419 14.1469C1.74419 14.1469 0.5 15.391 0.5 16.921C0.5 18.4511 1.74419 19.6952 3.27419 19.6952ZM3.27419 15.5339C4.0392 15.5339 4.66129 16.156 4.66129 16.921C4.66129 17.686 4.0392 18.3081 3.27419 18.3081C2.50919 18.3081 1.8871 17.686 1.8871 16.921C1.8871 16.156 2.50919 15.5339 3.27419 15.5339Z" fill="#1FB6CF"/>
</g>
<defs>
<clipPath id="clip0_1_438">
<rect width="43" height="43" fill="white" transform="translate(0.5 0.275879)"/>
</clipPath>
</defs>
</svg>
