<svg width="44" height="44" viewBox="0 0 44 44" fill="none" xmlns="http://www.w3.org/2000/svg">
<g id="5power-plant" clip-path="url(#clip0_1_462)">
<g id="Group">
<path id="Vector" d="M42.8701 41.4663H41.7871L39.2611 18.9445L39.6408 18.9427C39.9887 18.9411 40.2694 18.6578 40.2678 18.3099C40.2661 17.9631 39.9845 17.683 39.638 17.683H39.635L38.4853 17.6883V15.4199H39.2517C39.5996 15.4199 39.8815 15.138 39.8815 14.79C39.8815 14.4421 39.5996 14.1602 39.2517 14.1602H38.4853V13.3107H38.4958C38.8437 13.3107 39.1257 13.0288 39.1257 12.6809C39.1257 12.3329 38.8437 12.051 38.4958 12.051H38.4853V11.8606C38.4853 11.5126 38.2034 11.2307 37.8554 11.2307C37.5075 11.2307 37.2255 11.5126 37.2255 11.8606V12.051H37.215C36.8671 12.051 36.5851 12.3329 36.5851 12.6809C36.5851 13.0288 36.8671 13.3107 37.215 13.3107H37.2255V14.1602H36.4592C36.1112 14.1602 35.8293 14.4421 35.8293 14.79C35.8293 15.138 36.1112 15.4199 36.4592 15.4199H37.2255V17.6942L33.5228 17.7116V15.4199H34.2891C34.637 15.4199 34.919 15.138 34.919 14.79C34.919 14.4421 34.637 14.1602 34.2891 14.1602H33.5228V13.3107H33.5332C33.8812 13.3107 34.1631 13.0288 34.1631 12.6809C34.1631 12.3329 33.8812 12.051 33.5332 12.051H33.5228V11.8606C33.5228 11.5126 33.2409 11.2307 32.8929 11.2307C32.545 11.2307 32.2631 11.5126 32.2631 11.8606V12.051H32.2526C31.9046 12.051 31.6227 12.3329 31.6227 12.6809C31.6227 13.0288 31.9046 13.3107 32.2526 13.3107H32.2631V14.1602H31.4967C31.1488 14.1602 30.8668 14.4421 30.8668 14.79C30.8668 15.138 31.1488 15.4199 31.4967 15.4199H32.2631V17.7175L31.1074 17.7229C30.7596 17.7245 30.4789 18.0078 30.4805 18.3557C30.4822 18.7025 30.7638 18.9826 31.1103 18.9826H31.1133L31.4829 18.9809L31.0976 22.4165C30.466 22.1851 29.5619 22.0583 28.5387 22.5375C27.6096 22.9728 27.2063 23.789 26.9117 24.385C26.8194 24.5719 26.7449 24.7152 26.6802 24.8245V9.04888C26.6802 8.70093 26.3983 8.41899 26.0503 8.41899H23.7844V1.4556C23.7844 1.10765 23.5025 0.825714 23.1545 0.825714H20.3453C19.9974 0.825714 19.7155 1.10765 19.7155 1.4556C19.7155 1.80354 19.9974 2.08548 20.3453 2.08548H22.5247V8.41899H6.63833V2.08548H17.8268C18.1748 2.08548 18.4567 1.80354 18.4567 1.4556C18.4567 1.10765 18.1748 0.825714 17.8268 0.825714H6.00845C5.6605 0.825714 5.37857 1.10765 5.37857 1.4556V8.41899H3.11267C2.76472 8.41899 2.48279 8.70093 2.48279 9.04888V27.7867H1.97771C1.45373 27.7867 1.02751 28.213 1.02751 28.737V30.313C1.02751 30.8369 1.45373 31.2632 1.97771 31.2632H2.48279V41.4661H1.12988C0.781936 41.4661 0.5 41.748 0.5 42.096C0.5 42.4439 0.781936 42.7259 1.12988 42.7259H42.8701C43.2181 42.7259 43.5 42.4439 43.5 42.096C43.5 41.748 43.2181 41.4663 42.8701 41.4663ZM30.2287 41.4663L30.8274 36.1281L39.0451 38.8028L33.2213 41.4663H30.2287ZM32.2461 23.4787C32.2462 23.4779 32.2463 23.4771 32.2463 23.4764L32.3365 22.6722L37.7238 25.1101L31.7875 27.5666L32.2461 23.4787ZM40.1111 37.8249L32.3255 35.2909L39.5445 32.7731L40.1111 37.8249ZM39.3419 30.9675L32.8232 28.5014L38.7885 26.0328L39.3419 30.9675ZM31.5843 29.3796L38.235 31.8957L31.0199 34.4121L31.5843 29.3796ZM40.3111 39.609L40.5194 41.4663H36.2501L40.3111 39.609ZM38.5731 24.1116L33.1605 21.6622L37.6164 18.9522L37.9942 18.9505L38.5731 24.1116ZM35.1731 18.9637L32.5753 20.5436L32.7513 18.975L35.1731 18.9637ZM3.74247 9.67876H25.4203V27.7867H3.74247V9.67876ZM2.28719 29.0466H26.8756V30.0036H2.28719V29.0466ZM10.0504 36.7574H13.9515V41.4662H10.0504V36.7574ZM15.2113 41.4663V36.7575H19.1125V41.4663H15.2113ZM20.3723 41.4663V36.7575H20.4482C20.7962 36.7575 21.0781 36.4756 21.0781 36.1276C21.0781 35.7797 20.7962 35.4977 20.4482 35.4977H8.7146C8.36665 35.4977 8.08471 35.7797 8.08471 36.1276C8.08471 36.4756 8.36665 36.7575 8.7146 36.7575H8.7906V41.4663H3.74247V31.2633H25.4203V34.8684C25.4203 35.2163 25.7023 35.4982 26.0502 35.4982C26.3982 35.4982 26.6801 35.2163 26.6801 34.8684V31.2633H27.1851C27.7091 31.2633 28.1354 30.837 28.1354 30.313V28.7371C28.1354 28.2131 27.7091 27.7868 27.1851 27.7868H26.6801V26.3647C27.4278 26.183 27.7733 25.4852 28.0411 24.9433C28.2994 24.4205 28.5434 23.9267 29.073 23.6785C29.8913 23.2951 30.588 23.533 30.9508 23.725L28.961 41.4663H26.6801V37.3868C26.6801 37.0389 26.3982 36.7569 26.0502 36.7569C25.7023 36.7569 25.4203 37.0389 25.4203 37.3868V41.4663H20.3723Z" fill="#1FB6CF"/>
<path id="Vector_2" d="M8.88956 7.6309C8.99974 7.70833 9.12606 7.74553 9.25128 7.74553C9.4494 7.74545 9.64458 7.65223 9.76719 7.47779L11.339 5.24188C11.4742 5.04955 11.4911 4.79794 11.3828 4.58923C11.2744 4.38062 11.0589 4.24969 10.8238 4.24969H10.1214L10.4797 3.7619C10.6856 3.48156 10.6253 3.08734 10.345 2.88141C10.0647 2.67531 9.67044 2.7357 9.46451 3.01612L8.36936 4.50668C8.22877 4.69799 8.20769 4.95221 8.31502 5.16402C8.42218 5.37592 8.63953 5.50945 8.87696 5.50945H9.61107L8.7367 6.75326C8.5364 7.03788 8.60493 7.43084 8.88956 7.6309Z" fill="#1FB6CF"/>
<path id="Vector_3" d="M19.7657 3.2999H13.4124C13.0645 3.2999 12.7825 3.58183 12.7825 3.92978C12.7825 4.27773 13.0645 4.55966 13.4124 4.55966H19.7657C20.1137 4.55966 20.3956 4.27773 20.3956 3.92978C20.3956 3.58183 20.1137 3.2999 19.7657 3.2999Z" fill="#1FB6CF"/>
<path id="Vector_4" d="M19.7657 5.94489H13.4124C13.0645 5.94489 12.7825 6.22682 12.7825 6.57477C12.7825 6.92272 13.0645 7.20465 13.4124 7.20465H19.7657C20.1137 7.20465 20.3956 6.92272 20.3956 6.57477C20.3956 6.22682 20.1137 5.94489 19.7657 5.94489Z" fill="#1FB6CF"/>
<path id="Vector_5" d="M9.21101 19.8268H6.58238C6.11954 19.8268 5.74304 20.2033 5.74304 20.6661V25.5499C5.74304 26.0127 6.11954 26.3892 6.58238 26.3892H9.21101C9.67385 26.3892 10.0503 26.0127 10.0503 25.5499V20.6661C10.0503 20.2033 9.67376 19.8268 9.21101 19.8268ZM8.79058 25.1295H7.00281V21.0865H8.79058V25.1295Z" fill="#1FB6CF"/>
<path id="Vector_6" d="M22.5805 19.8268H19.9518C19.4891 19.8268 19.1125 20.2033 19.1125 20.6661V25.5499C19.1125 26.0127 19.4891 26.3892 19.9518 26.3892H22.5805C23.0433 26.3892 23.4198 26.0127 23.4198 25.5499V20.6661C23.4198 20.2033 23.0433 19.8268 22.5805 19.8268ZM22.16 25.1295H20.3723V21.0865H22.16V25.1295Z" fill="#1FB6CF"/>
<path id="Vector_7" d="M9.21101 11.0763H6.58238C6.11954 11.0763 5.74304 11.4528 5.74304 11.9156V16.7995C5.74304 17.2622 6.11954 17.6387 6.58238 17.6387H9.21101C9.67385 17.6387 10.0503 17.2622 10.0503 16.7995V11.9156C10.0503 11.4528 9.67376 11.0763 9.21101 11.0763ZM8.79058 16.379H7.00281V12.336H8.79058V16.379Z" fill="#1FB6CF"/>
<path id="Vector_8" d="M15.8958 11.0763H13.2671C12.8042 11.0763 12.4277 11.4528 12.4277 11.9156V16.7995C12.4277 17.2622 12.8042 17.6387 13.2671 17.6387H15.8958C16.3585 17.6387 16.735 17.2622 16.735 16.7995V11.9156C16.7351 11.4528 16.3585 11.0763 15.8958 11.0763ZM15.4754 16.379H13.6876V12.336H15.4754V16.379Z" fill="#1FB6CF"/>
<path id="Vector_9" d="M22.5805 11.0763H19.9518C19.4891 11.0763 19.1125 11.4528 19.1125 11.9156V16.7995C19.1125 17.2622 19.4891 17.6387 19.9518 17.6387H22.5805C23.0433 17.6387 23.4198 17.2622 23.4198 16.7995V11.9156C23.4198 11.4528 23.0433 11.0763 22.5805 11.0763ZM22.16 16.379H20.3723V12.336H22.16V16.379Z" fill="#1FB6CF"/>
<path id="Vector_10" d="M15.8958 19.8268H13.2671C12.8043 19.8268 12.4278 20.2033 12.4278 20.6661V22.1966C12.4278 22.5446 12.7097 22.8265 13.0577 22.8265C13.4056 22.8265 13.6876 22.5446 13.6876 22.1966V21.0865H15.4753V25.1295H13.6876V24.7151C13.6876 24.3671 13.4056 24.0852 13.0577 24.0852C12.7097 24.0852 12.4278 24.3671 12.4278 24.7151V25.5499C12.4278 26.0127 12.8043 26.3892 13.2671 26.3892H15.8958C16.3585 26.3892 16.735 26.0127 16.735 25.5499V20.6661C16.7351 20.2033 16.3585 19.8268 15.8958 19.8268Z" fill="#1FB6CF"/>
</g>
</g>
<defs>
<clipPath id="clip0_1_462">
<rect width="43" height="43" fill="white" transform="translate(0.5 0.275879)"/>
</clipPath>
</defs>
</svg>
