<svg width="43" height="44" viewBox="0 0 43 44" fill="none" xmlns="http://www.w3.org/2000/svg">
<g id="6plumbing" clip-path="url(#clip0_1_576)">
<g id="Page-1">
<g id="007---Pipe">
<path id="Shape" d="M41.5668 39.086V14.5875C41.5668 7.46301 35.7912 1.68749 28.6668 1.68749C21.5423 1.68749 15.7668 7.46301 15.7668 14.5875V16.1527C14.9108 16.4553 14.3372 17.263 14.3334 18.1708V25.3375C14.3372 26.2453 14.9108 27.053 15.7668 27.3556V28.9208C15.7668 29.7124 15.125 30.3542 14.3334 30.3542C13.5418 30.3542 12.9001 29.7124 12.9001 28.9208V4.42229C13.8866 4.07481 14.4787 3.06647 14.3015 2.03566C14.1242 1.00485 13.2294 0.252172 12.1834 0.254154H2.1501C1.10417 0.252172 0.209314 1.00485 0.0320773 2.03566C-0.145159 3.06647 0.446913 4.07481 1.43344 4.42229V28.9208C1.43344 36.0453 7.20897 41.8208 14.3334 41.8208C21.4579 41.8208 27.2334 36.0453 27.2334 28.9208V27.3556C28.0894 27.053 28.663 26.2453 28.6668 25.3375V18.1708C28.663 17.263 28.0894 16.4553 27.2334 16.1527V14.5875C27.2334 13.7959 27.8752 13.1542 28.6668 13.1542C29.4584 13.1542 30.1001 13.7959 30.1001 14.5875V39.086C29.1136 39.4335 28.5215 40.4418 28.6987 41.4726C28.876 42.5035 29.7708 43.2561 30.8168 43.2542H40.8501C41.896 43.2561 42.7909 42.5035 42.9681 41.4726C43.1454 40.4418 42.5533 39.4335 41.5668 39.086ZM2.1501 1.68749H12.1834C12.5792 1.68749 12.9001 2.00835 12.9001 2.40415C12.9001 2.79996 12.5792 3.12082 12.1834 3.12082H2.1501C1.7543 3.12082 1.43344 2.79996 1.43344 2.40415C1.43344 2.00835 1.7543 1.68749 2.1501 1.68749ZM14.3334 40.3875C8.00368 40.38 2.87427 35.2506 2.86677 28.9208V4.55415H11.4668V28.9208C11.4668 30.504 12.7502 31.7875 14.3334 31.7875C15.9167 31.7875 17.2001 30.504 17.2001 28.9208V27.4875H25.8001V28.9208C25.7926 35.2506 20.6632 40.38 14.3334 40.3875ZM27.2334 25.3375C27.2334 25.7333 26.9126 26.0542 26.5168 26.0542H16.4834C16.0876 26.0542 15.7668 25.7333 15.7668 25.3375V18.1708C15.7668 17.775 16.0876 17.4542 16.4834 17.4542H26.5168C26.9126 17.4542 27.2334 17.775 27.2334 18.1708V25.3375ZM28.6668 11.7208C27.0836 11.7208 25.8001 13.0043 25.8001 14.5875V16.0208H17.2001V14.5875C17.2001 8.25462 22.3339 3.12082 28.6668 3.12082C34.9996 3.12082 40.1334 8.25462 40.1334 14.5875V38.9542H31.5334V14.5875C31.5334 13.0043 30.25 11.7208 28.6668 11.7208ZM40.8501 41.8208H30.8168C30.421 41.8208 30.1001 41.5 30.1001 41.1042C30.1001 40.7084 30.421 40.3875 30.8168 40.3875H40.8501C41.2459 40.3875 41.5668 40.7084 41.5668 41.1042C41.5668 41.5 41.2459 41.8208 40.8501 41.8208Z" fill="#1FB6CF"/>
<path id="Shape_2" d="M5.01665 5.98755C4.62085 5.98755 4.29999 6.30841 4.29999 6.70422V8.13755C4.29999 8.53335 4.62085 8.85422 5.01665 8.85422C5.41246 8.85422 5.73332 8.53335 5.73332 8.13755V6.70422C5.73332 6.30841 5.41246 5.98755 5.01665 5.98755Z" fill="#1FB6CF"/>
<path id="Shape_3" d="M5.01665 10.2875C4.62085 10.2875 4.29999 10.6083 4.29999 11.0041V21.0375C4.29999 21.4333 4.62085 21.7541 5.01665 21.7541C5.41246 21.7541 5.73332 21.4333 5.73332 21.0375V11.0041C5.73332 10.6083 5.41246 10.2875 5.01665 10.2875Z" fill="#1FB6CF"/>
</g>
</g>
</g>
<defs>
<clipPath id="clip0_1_576">
<rect width="43" height="43" fill="white" transform="translate(0 0.25415)"/>
</clipPath>
</defs>
</svg>
