<svg width="46" height="46" viewBox="0 0 46 46" fill="none" xmlns="http://www.w3.org/2000/svg">
<g id="7bridges">
<path id="Vector" d="M2.32433 36.7624H43.6757V37.9786H2.32433V36.7624Z" fill="#1FB6CF"/>
<path id="Vector_2" d="M39.4189 37.9786H32.1216C31.9603 37.9786 31.8057 37.9145 31.6916 37.8005C31.5776 37.6864 31.5135 37.5317 31.5135 37.3705V34.938C31.5135 34.7768 31.5776 34.6221 31.6916 34.508C31.8057 34.394 31.9603 34.3299 32.1216 34.3299H39.4189C39.5802 34.3299 39.7349 34.394 39.8489 34.508C39.963 34.6221 40.027 34.7768 40.027 34.938V37.3705C40.027 37.5317 39.963 37.6864 39.8489 37.8005C39.7349 37.9145 39.5802 37.9786 39.4189 37.9786ZM32.7297 36.7624H38.8108V35.5461H32.7297V36.7624Z" fill="#1FB6CF"/>
<path id="Vector_3" d="M37.5946 35.5462H33.9459C33.7847 35.5462 33.63 35.4821 33.5159 35.368C33.4019 35.254 33.3378 35.0993 33.3378 34.938V28.857H34.554V34.3299H36.9865V28.857H38.2027V34.938C38.2027 35.0993 38.1386 35.254 38.0246 35.368C37.9105 35.4821 37.7559 35.5462 37.5946 35.5462Z" fill="#1FB6CF"/>
<path id="Vector_4" d="M38.2027 26.4245H36.9865V8.7894H34.554V26.4245H33.3378V8.18129C33.3378 8.02001 33.4019 7.86533 33.5159 7.75129C33.63 7.63725 33.7847 7.57318 33.9459 7.57318H37.5946C37.7559 7.57318 37.9105 7.63725 38.0246 7.75129C38.1386 7.86533 38.2027 8.02001 38.2027 8.18129V26.4245Z" fill="#1FB6CF"/>
<path id="Vector_5" d="M13.8784 37.9786H6.58108C6.4198 37.9786 6.26513 37.9145 6.15109 37.8005C6.03705 37.6864 5.97298 37.5317 5.97298 37.3705V34.938C5.97298 34.7768 6.03705 34.6221 6.15109 34.508C6.26513 34.394 6.4198 34.3299 6.58108 34.3299H13.8784C14.0397 34.3299 14.1943 34.394 14.3084 34.508C14.4224 34.6221 14.4865 34.7768 14.4865 34.938V37.3705C14.4865 37.5317 14.4224 37.6864 14.3084 37.8005C14.1943 37.9145 14.0397 37.9786 13.8784 37.9786ZM7.18919 36.7624H13.2703V35.5461H7.18919V36.7624Z" fill="#1FB6CF"/>
<path id="Vector_6" d="M12.6622 26.4245H11.446V8.7894H9.01352V26.4245H7.7973V8.18129C7.7973 8.02001 7.86137 7.86533 7.97541 7.75129C8.08946 7.63725 8.24413 7.57318 8.40541 7.57318H12.0541C12.2153 7.57318 12.37 7.63725 12.4841 7.75129C12.5981 7.86533 12.6622 8.02001 12.6622 8.18129V26.4245Z" fill="#1FB6CF"/>
<path id="Vector_7" d="M12.0541 35.5462H8.40541C8.24413 35.5462 8.08946 35.4821 7.97541 35.368C7.86137 35.254 7.7973 35.0993 7.7973 34.938V28.857H9.01352V34.3299H11.446V28.857H12.6622V34.938C12.6622 35.0993 12.5981 35.254 12.4841 35.368C12.37 35.4821 12.2153 35.5462 12.0541 35.5462Z" fill="#1FB6CF"/>
<path id="Vector_8" d="M23 22.1678C12.8324 22.1678 11.4612 8.37588 11.446 8.23601L12.6622 8.12595C12.6713 8.25426 13.9428 20.9516 23 20.9516C32.0572 20.9516 33.3287 8.25426 33.3378 8.12595L34.5541 8.23601C34.5389 8.37588 33.1676 22.1678 23 22.1678Z" fill="#1FB6CF"/>
<path id="Vector_9" d="M43.3461 20.6852C37.8585 17.1442 37.0218 8.59845 36.9895 8.23601L38.2027 8.12595C38.21 8.20865 39.0212 16.4461 44.0071 19.663L43.3461 20.6852Z" fill="#1FB6CF"/>
<path id="Vector_10" d="M2.65393 20.6852L1.99474 19.663C6.98913 16.44 7.79183 8.20865 7.79913 8.12656L9.01352 8.23602C8.97764 8.59845 8.14149 17.1442 2.65393 20.6852Z" fill="#1FB6CF"/>
<path id="Vector_11" d="M43.6757 29.4651H2.32433C2.16304 29.4651 2.00837 29.401 1.89433 29.2869C1.78029 29.1729 1.71622 29.0182 1.71622 28.8569V26.4245C1.71622 26.2632 1.78029 26.1086 1.89433 25.9945C2.00837 25.8805 2.16304 25.8164 2.32433 25.8164H43.6757C43.837 25.8164 43.9916 25.8805 44.1057 25.9945C44.2197 26.1086 44.2838 26.2632 44.2838 26.4245V28.8569C44.2838 29.0182 44.2197 29.1729 44.1057 29.2869C43.9916 29.401 43.837 29.4651 43.6757 29.4651ZM2.93243 28.2488H43.0676V27.0326H2.93243V28.2488Z" fill="#1FB6CF"/>
<path id="Vector_12" d="M29.6892 17.9171H30.9054V26.4245H29.6892V17.9171Z" fill="#1FB6CF"/>
<path id="Vector_13" d="M26.0405 20.8299H27.2568V26.4245H26.0405V20.8299Z" fill="#1FB6CF"/>
<path id="Vector_14" d="M22.3919 21.5597H23.6081V26.4245H22.3919V21.5597Z" fill="#1FB6CF"/>
<path id="Vector_15" d="M18.7432 20.8299H19.9595V26.4245H18.7432V20.8299Z" fill="#1FB6CF"/>
<path id="Vector_16" d="M15.0946 17.9171H16.3108V26.4245H15.0946V17.9171Z" fill="#1FB6CF"/>
</g>
</svg>
