<svg width="44" height="44" viewBox="0 0 44 44" fill="none" xmlns="http://www.w3.org/2000/svg">
<g id="8winch" clip-path="url(#clip0_1_509)">
<g id="Group">
<g id="Group_2">
<path id="Vector" d="M40.9675 8.76882H19.8855C19.4593 7.06351 17.9146 5.79627 16.0791 5.79627H15.8059L13.6491 0.698405C13.5408 0.442252 13.2897 0.275879 13.0116 0.275879C12.7335 0.275879 12.4824 0.442336 12.3741 0.698405L10.2172 5.79627H8.55268C8.17029 5.79627 7.86039 6.10625 7.86039 6.48855V8.76873H3.03237C2.64999 8.76873 2.34009 9.07872 2.34009 9.46102V14.9816C2.34009 15.3639 2.64999 15.6739 3.03237 15.6739H7.86056V17.2464C7.86056 17.6287 8.17046 17.9387 8.55284 17.9387H9.55915V38.2111H4.87247C4.49009 38.2111 4.18019 38.5211 4.18019 38.9034V42.5837C4.18019 42.966 4.49009 43.276 4.87247 43.276H14.5236C14.906 43.276 15.2159 42.966 15.2159 42.5837C15.2159 42.2014 14.906 41.8914 14.5236 41.8914H5.56476V39.5957H20.4584V41.8914H16.7389C16.3565 41.8914 16.0466 42.2014 16.0466 42.5837C16.0466 42.966 16.3565 43.276 16.7389 43.276H21.1507C21.5331 43.276 21.843 42.966 21.843 42.5837V38.9034C21.843 38.5211 21.5331 38.2111 21.1507 38.2111H16.4641V17.9386H19.3106C19.693 17.9386 20.0029 17.6286 20.0029 17.2463V15.6738H36.8781V21.9546H36.4628C36.0805 21.9546 35.7705 22.2645 35.7705 22.6468C35.7705 23.0291 36.0805 23.3391 36.4628 23.3391H36.8781V25.1023C36.8781 25.4846 37.188 25.7946 37.5704 25.7946C38.2619 25.7946 38.8245 26.3571 38.8245 27.0486C38.8245 27.74 38.2619 28.3026 37.5704 28.3026C36.879 28.3026 36.3164 27.74 36.3164 27.0486C36.3164 26.6663 36.0065 26.3563 35.6241 26.3563C35.2417 26.3563 34.9318 26.6663 34.9318 27.0486C34.9318 28.5034 36.1154 29.6872 37.5704 29.6872C39.0255 29.6872 40.209 28.5035 40.209 27.0486C40.209 25.8332 39.3829 24.807 38.2627 24.5021V23.3391H38.678C39.0604 23.3391 39.3703 23.0291 39.3703 22.6468C39.3703 22.2645 39.0604 21.9546 38.678 21.9546H38.2627V15.6738H40.9676C41.35 15.6738 41.6599 15.3638 41.6599 14.9815V9.46102C41.6598 9.07872 41.3499 8.76882 40.9675 8.76882ZM3.72466 14.2893V11.1325L6.88147 14.2893H3.72466ZM7.86039 13.3102L4.70358 10.1534H7.86039V13.3102ZM13.0116 2.74494L14.3026 5.79635H11.7207L13.0116 2.74494ZM15.0794 38.211H11.9226L15.0794 35.0542V38.211ZM10.9436 37.2321V29.534L14.7927 33.383L10.9436 37.2321ZM15.0794 31.7116L11.2304 27.8625L15.0794 24.0135V31.7116ZM10.9436 26.1912V18.9177L14.5804 22.5545L10.9436 26.1912ZM15.0794 21.0954L11.9226 17.9386H15.0794V21.0954ZM18.6183 13.3924H13.633V11.3403C13.633 10.958 13.3231 10.6481 12.9407 10.6481C12.5583 10.6481 12.2484 10.958 12.2484 11.3403V14.0847C12.2484 14.467 12.5583 14.777 12.9407 14.777H18.6182V16.554H9.24496V7.18092H12.2483V9.07889C12.2483 9.46118 12.5582 9.77117 12.9406 9.77117C13.323 9.77117 13.6329 9.46118 13.6329 9.07889V7.18092H15.3448C15.3457 7.18092 15.3465 7.18109 15.3474 7.18109C15.3485 7.18109 16.0791 7.18092 16.0791 7.18092C17.4792 7.18092 18.6182 8.32 18.6182 9.72002L18.6183 13.3924ZM20.0028 13.3102V10.1534H23.1596L20.0028 13.3102ZM20.9819 14.2893L24.6187 10.6525L28.2554 14.2893H20.9819ZM26.0776 10.1534H33.7758L29.9267 14.0025L26.0776 10.1534ZM31.598 14.2893L35.4471 10.4402L39.2962 14.2893H31.598ZM40.2752 13.3102L37.1184 10.1534H40.2752V13.3102Z" fill="#1FB6CF"/>
</g>
</g>
</g>
<defs>
<clipPath id="clip0_1_509">
<rect width="43" height="43" fill="white" transform="translate(0.5 0.275879)"/>
</clipPath>
</defs>
</svg>
