<svg class="svg-icon" style="width: 1em; height: 1em;vertical-align: middle;fill: #1FB6CF;overflow: hidden;" viewBox="0 0 1024 1024" version="1.1" xmlns="http://www.w3.org/2000/svg"><path d="M850.1 38.5c5 0 7.6 6.1 4 9.6l-51.2 51.2c-11.8 10.6-11.8 29.4 0 41.1l82.3 78.8c5.3 5.3 12.9 7.9 20.6 7.9s15.3-2.6 20.6-7.9l54-54c1.1-1.1 2.6-1.7 4-1.7 2.9 0 5.9 2.4 5.6 5.9-1.2 31.7-14.1 62.6-37.7 86.2-24.7 24.7-57.6 37.9-91 37.9-17.3 0-34.8-3.5-51.3-10.7-4.1-1.6-8.2-2.4-12.3-2.4-7.8 0-15.3 2.8-20.7 8.2L224.8 840.8c-10.6 7-15.3 20-11.8 31.7 9.4 31.7 0 67-23.5 90.5-9.2 9.9-20.5 17.4-32.7 22-0.7 0.2-1.5 0.5-2.1 0.5-4.6 0-7.7-5.9-4-9.7l21-21c11.8-10.6 11.8-29.4 0-41.1l-62.4-62.4c-5.9-5.9-14.1-8.2-21.1-8.2-8.2 0-15.3 2.4-21.1 8.2L43.4 875c-1.1 1.1-2.6 1.7-4 1.7-3.5 0-6.8-3.4-5.4-7.5 4.6-13.4 12.2-26.4 22.6-36.8 18-18 41.5-27.8 65.6-27.8 9 0 18.3 1.4 27.2 4.3 3.2 1 6.3 1.6 9.5 1.6 7.2 0 14.1-2.8 19.9-8.6l555.7-554.5c8.2-8.2 10.6-21.1 5.9-31.7-20-48.2-8.2-103.5 28.2-139.9 22.4-22.4 50.8-35 80.9-37.3h0.6m0-33.9c-1 0-2 0-3.1 0.1-19.1 1.5-37.5 6.2-54.9 14.1-17.6 8-33.6 19.2-47.3 33-22.7 22.7-38.1 51.3-44.5 82.7-6.3 30.8-3.6 62.4 7.9 91.5l-551 549.9c-11.3-3.4-23-5.1-34.8-5.1-33.4 0-65.2 13.4-89.6 37.7-13.6 13.6-24.2 30.8-30.6 49.8-4.1 12.1-2.1 25.4 5.2 35.7 7.5 10.4 19.5 16.6 32.3 16.6 10.5 0 20.5-4.2 27.9-11.6l21-21 56.2 56.2-17.6 17.6a39.443 39.443 0 0 0-8.6 43c6.2 14.9 20.5 24.5 36.5 24.5 4.9 0 9.6-0.9 14.1-2.6 17.1-6.4 32.5-16.9 45.1-30.3 15.6-15.7 26.8-35.5 32.4-57.1 5.4-20.8 5.5-42.3 0.2-62.6l2.1-2.1 549.9-549.9c19.9 8.4 40.9 12.5 62.5 12.5 21.2 0 41.9-4.1 61.6-12.2 20-8.2 38-20.2 53.3-35.6 29-29 46-67.8 47.7-108.8 0.5-10.8-3.5-21.1-11-28.9-7.5-7.8-17.9-12.2-28.6-12.2-10.5 0-20.5 4.1-27.9 11.6L905.8 192l-75.4-72.1 47.7-47.7c11.3-11.3 14.7-28.2 8.6-43-6.2-15-20.6-24.6-36.6-24.6z"  /><path d="M63.1 412.2l57.2 57.2c20.8 21.6 54.9 22.7 77.2 2.7l45.4-45.4c6.2-6.2 6.2-16.4 0-22.7-11.3-11.3-11.3-11.3 2.5-25.2l18.2-18.2c13.6-13.6 13.8-13.8 25-2.7l120.1 122.8 21.7-21.7-108.5-111.3 61-61L494 395.5l22.8-22.8-119.6-116.8c-2.3-16.2 3.2-32.3 14.8-43.8 35.4-35.4 126.8-36 158.2-34.2 4.4 0.3 8.8-1.2 12-4.3 2.9-2.9 4.6-6.9 4.7-11.1l0.2-34.7c0-6.8-4.3-12.9-10.6-15.3-236.3-80.4-316.5 24.7-319.2 27.4l-82.8 82.8c-6.2 6.2-6.2 16.4 0 22.7 11.3 11.3 11.3 11.3-2.5 25.2l-18.2 18.2c-13.8 13.8-13.8 13.8-25.2 2.5-6.2-6.2-16.4-6.2-22.7 0l-45.4 45.4c-20.2 21.1-19.4 54.7 1.7 74.8 0.3 0.3 0.7 0.5 0.9 0.7z m19.4-52.1c0.5-0.6 0.9-1 1.4-1.6l34.2-34.2c27.5 18 47-1.6 58.1-12.7l18.2-18.2c11.1-11.1 30.8-30.8 12.9-58.3l79.4-79.4c18.6-18.6 91.9-73.3 268.3-16.6v5.9c-36.7-0.5-123.8 2.3-165.9 44.3-17.4 18.1-25.8 43.2-22.7 68l-67.9 68.2c-28.1-17.3-47.7 2.3-58.5 13.1l-18.2 18.2c-11.3 11.3-30.8 30.8-12.9 58.3l-34.2 34.2c-9.7 7.3-23.5 6.2-31.7-2.7l-57.2-57.2c-9-7.1-10.4-20.2-3.3-29.3zM646.2 501.6l-22.8 22.8 317.5 312c7.7 7.7 9 9-8.8 27L898.5 897c-5 6.2-11.1 11.3-18 15.3 0 0-3.4 1.1-9-4.5l-312.4-319-21.7 21.7 311.4 317c10.1 12 26.2 16.9 41.2 12.7 12.1-4.5 22.8-12.1 31.3-21.8l32.9-32.9c12.2-12.2 40.8-40.8 9-72.7l-317-311.2z"  /></svg>