<?xml version="1.0" ?>

<!-- Uploaded to: SVG Repo, www.svgrepo.com, Generator: SVG Repo Mixer Tools -->
<svg fill="#1FB6CF" width="800px" height="800px" viewBox="0 0 512 512" version="1.1" xml:space="preserve" xmlns="http://www.w3.org/2000/svg" xmlns:xlink="http://www.w3.org/1999/xlink">

<g id="Welder">

<g id="XMLID_499_">

<path d="M311,33.73C311,16.195,296.427,2,278.893,2h-45.785C215.573,2,201,16.195,201,33.73V36h110V33.73z" id="XMLID_500_"/>

<path d="M56,179.203v88.892C56,282.658,67.681,295,82.244,295H90V152h-7.756C67.681,152,56,164.64,56,179.203z" id="XMLID_504_"/>

<rect height="87" id="XMLID_852_" width="186" x="163" y="121"/>

<path d="M429.756,152H422v143h7.756C444.319,295,456,282.658,456,268.095v-88.892    C456,164.64,444.319,152,429.756,152z" id="XMLID_856_"/>

<path d="M354.862,56h-34.207H191.344h-34.207C130.987,56,110,77.084,110,103.234v39.596v161.638v59.267    c0,80.663,65.337,146.288,146,146.288s146-65.625,146-146.288v-59.267V142.83v-39.596C402,77.084,381.013,56,354.862,56z     M196,412.39c0,5.502-4.498,9.963-10,9.963c-5.502,0-10-4.461-10-9.963V282.876c0-5.502,4.498-9.963,10-9.963    c5.502,0,10,4.461,10,9.963V412.39z M266,412.39c0,5.502-4.498,9.963-10,9.963c-5.502,0-10-4.461-10-9.963V282.876    c0-5.502,4.498-9.963,10-9.963c5.502,0,10,4.461,10,9.963V412.39z M336,412.39c0,5.502-4.498,9.963-10,9.963    c-5.502,0-10-4.461-10-9.963V282.876c0-5.502,4.498-9.963,10-9.963c5.502,0,10,4.461,10,9.963V412.39z M368,219.037    c0,5.502-4.46,9.963-9.963,9.963H152.963c-5.502,0-9.963-4.46-9.963-9.963V110.963c0-5.502,4.46-9.963,9.963-9.963h205.075    c5.502,0,9.963,4.46,9.963,9.963V219.037z" id="XMLID_859_"/>

</g>

</g>

<g id="Layer_1"/>

</svg>